HIERARCHY
ROOT hip
{
  OFFSET -195.526 78.0787 -54.0998
  CHANNELS 6 Xposition Yposition Zposition Zrotation Xrotation Yrotation
  JOINT abdomen
  {
    OFFSET 0 20.6881 -0.73152
    CHANNELS 3 Zrotation Xrotation Yrotation
    JOINT chest
    {
      OFFSET 0 11.7043 -0.48768
      CHANNELS 3 Zrotation Xrotation Yrotation
      JOINT neck
      {
        OFFSET 0 22.1894 -2.19456
        CHANNELS 3 Zrotation Xrotation Yrotation
        JOINT head
        {
          OFFSET -0.24384 7.07133 1.2192
          CHANNELS 3 Zrotation Xrotation Yrotation
          JOINT leftEye
          {
            OFFSET 4.14528 8.04674 8.04672
            CHANNELS 3 Zrotation Xrotation Yrotation
            End Site
            {
              OFFSET 1 0 0
            }
          }
          JOINT rightEye
          {
            OFFSET -3.6576 8.04674 8.04672
            CHANNELS 3 Zrotation Xrotation Yrotation
            End Site
            {
              OFFSET 1 0 0
            }
          }
        }
      }
      JOINT rCollar
      {
        OFFSET -2.68224 19.2634 -4.8768
        CHANNELS 3 Zrotation Xrotation Yrotation
        JOINT rShldr
        {
          OFFSET -8.77824 -1.95073 1.46304
          CHANNELS 3 Zrotation Xrotation Yrotation
          JOINT rForeArm
          {
            OFFSET -28.1742 -1.7115 0.48768
            CHANNELS 3 Zrotation Xrotation Yrotation
            JOINT rHand
            {
              OFFSET -22.5879 0.773209 7.07136
              CHANNELS 3 Zrotation Xrotation Yrotation
              JOINT rThumb1
              {
                OFFSET -1.2192 -0.487915 3.41376
                CHANNELS 3 Zrotation Xrotation Yrotation
                JOINT rThumb2
                {
                  OFFSET -3.37035 -0.52449 3.41376
                  CHANNELS 3 Zrotation Xrotation Yrotation
                  End Site
                  {
                    OFFSET -1.78271 -1.18214 1.43049
                  }
                }
              }
              JOINT rIndex1
              {
                OFFSET -7.75947 0.938293 5.60832
                CHANNELS 3 Zrotation Xrotation Yrotation
                JOINT rIndex2
                {
                  OFFSET -2.54057 -0.884171 1.56538
                  CHANNELS 3 Zrotation Xrotation Yrotation
                  End Site
                  {
                    OFFSET -1.62519 -0.234802 1.16502
                  }
                }
              }
              JOINT rMid1
              {
                OFFSET -8.24714 1.18213 3.41376
                CHANNELS 3 Zrotation Xrotation Yrotation
                JOINT rMid2
                {
                  OFFSET -3.10165 -0.590103 1.0647
                  CHANNELS 3 Zrotation Xrotation Yrotation
                  End Site
                  {
                    OFFSET -2.48547 -0.328903 0.83742
                  }
                }
              }
              JOINT rRing1
              {
                OFFSET -8.82822 0.546677 1.51678
                CHANNELS 3 Zrotation Xrotation Yrotation
                JOINT rRing2
                {
                  OFFSET -2.60934 -0.819778 -0.0198488
                  CHANNELS 3 Zrotation Xrotation Yrotation
                  End Site
                  {
                    OFFSET -2.33842 -0.294052 0.168128
                  }
                }
              }
              JOINT rPinky1
              {
                OFFSET -8.27202 -0.0477905 -0.4584
                CHANNELS 3 Zrotation Xrotation Yrotation
                JOINT rPinky2
                {
                  OFFSET -1.82734 -0.647385 -0.700984
                  CHANNELS 3 Zrotation Xrotation Yrotation
                  End Site
                  {
                    OFFSET -1.69225 -0.51767 -0.607171
                  }
                }
              }
            }
          }
        }
      }
      JOINT lCollar
      {
        OFFSET 2.68224 19.2634 -4.8768
        CHANNELS 3 Zrotation Xrotation Yrotation
        JOINT lShldr
        {
          OFFSET 8.77824 -1.95073 1.46304
          CHANNELS 3 Zrotation Xrotation Yrotation
          JOINT lForeArm
          {
            OFFSET 28.1742 -1.7115 0.48768
            CHANNELS 3 Zrotation Xrotation Yrotation
            JOINT lHand
            {
              OFFSET 22.5879 0.773209 7.07136
              CHANNELS 3 Zrotation Xrotation Yrotation
              JOINT lThumb1
              {
                OFFSET 1.2192 -0.487915 3.41376
                CHANNELS 3 Zrotation Xrotation Yrotation
                JOINT lThumb2
                {
                  OFFSET 3.37035 -0.52449 3.41376
                  CHANNELS 3 Zrotation Xrotation Yrotation
                  End Site
                  {
                    OFFSET 1.78271 -1.18214 1.43049
                  }
                }
              }
              JOINT lIndex1
              {
                OFFSET 7.75947 0.938293 5.60832
                CHANNELS 3 Zrotation Xrotation Yrotation
                JOINT lIndex2
                {
                  OFFSET 2.54057 -0.884171 1.56538
                  CHANNELS 3 Zrotation Xrotation Yrotation
                  End Site
                  {
                    OFFSET 1.62519 -0.234802 1.16502
                  }
                }
              }
              JOINT lMid1
              {
                OFFSET 8.24714 1.18213 3.41376
                CHANNELS 3 Zrotation Xrotation Yrotation
                JOINT lMid2
                {
                  OFFSET 3.10165 -0.590103 1.0647
                  CHANNELS 3 Zrotation Xrotation Yrotation
                  End Site
                  {
                    OFFSET 2.48547 -0.328903 0.83742
                  }
                }
              }
              JOINT lRing1
              {
                OFFSET 8.82822 0.546677 1.51678
                CHANNELS 3 Zrotation Xrotation Yrotation
                JOINT lRing2
                {
                  OFFSET 2.60934 -0.819778 -0.0198488
                  CHANNELS 3 Zrotation Xrotation Yrotation
                  End Site
                  {
                    OFFSET 2.33842 -0.294052 0.168128
                  }
                }
              }
              JOINT lPinky1
              {
                OFFSET 8.27202 -0.0477905 -0.4584
                CHANNELS 3 Zrotation Xrotation Yrotation
                JOINT lPinky2
                {
                  OFFSET 1.82734 -0.647385 -0.700984
                  CHANNELS 3 Zrotation Xrotation Yrotation
                  End Site
                  {
                    OFFSET 1.69225 -0.51767 -0.607171
                  }
                }
              }
            }
          }
        }
      }
    }
  }
  JOINT rButtock
  {
    OFFSET -8.77824 4.35084 1.2192
    CHANNELS 3 Zrotation Xrotation Yrotation
    JOINT rThigh
    {
      OFFSET 0 -1.70687 -2.19456
      CHANNELS 3 Zrotation Xrotation Yrotation
      JOINT rShin
      {
        OFFSET 0 -36.8199 0.73152
        CHANNELS 3 Zrotation Xrotation Yrotation
        JOINT rFoot
        {
          OFFSET 0.73152 -45.1104 -5.12064
          CHANNELS 3 Zrotation Xrotation Yrotation
          End Site
          {
            OFFSET -1.1221 -3.69964 12.103
          }
        }
      }
    }
  }
  JOINT lButtock
  {
    OFFSET 8.77824 4.35084 1.2192
    CHANNELS 3 Zrotation Xrotation Yrotation
    JOINT lThigh
    {
      OFFSET 0 -1.70687 -2.19456
      CHANNELS 3 Zrotation Xrotation Yrotation
      JOINT lShin
      {
        OFFSET 0 -36.8199 0.73152
        CHANNELS 3 Zrotation Xrotation Yrotation
        JOINT lFoot
        {
          OFFSET -0.73152 -45.1104 -5.12064
          CHANNELS 3 Zrotation Xrotation Yrotation
          End Site
          {
            OFFSET 1.1221 -3.69964 12.103
          }
        }
      }
    }
  }
}
MOTION
Frames:	4
Frame Time:	0.00833333
281.874 83.4871 101.44 1.97633 0.00853138 -0.037709 -2.59962 0.000365927 -0.0702742 -0.716698 0.0122898 -0.124029 3.94759e-014 7.95139e-016 3.47873e-016 1.17805e-013 9.54166e-015 1.18805e-015 -0 0 0 -0 0 0 1.98292e-014 1.9432e-016 3.47873e-016 4.16279e-013 4.13099e-015 6.16232e-015 7.11997e-012 -1.99461e-012 9.54166e-015 8.14348e-011 2.85835e-012 9.06458e-013 1.92094e-010 1.87049e-012 1.99421e-012 3.31731e-010 3.22826e-012 3.42546e-012 1.92099e-010 1.87215e-012 1.99103e-012 7.73091 5.47488 0.417314 1.92096e-010 1.87096e-012 1.99421e-012 2.90554 0.965183 0.102902 1.92106e-010 1.87086e-012 1.98785e-012 10.2786 0.731801 0.0259123 1.92089e-010 1.87136e-012 1.99739e-012 2.22167 -0.733487 -0.20892 1.97302e-014 1.96455e-016 1.49089e-016 4.12103e-013 4.01297e-015 4.17448e-015 7.10998e-012 2.26595e-012 -3.18055e-015 8.14116e-011 -1.41286e-012 9.22361e-013 1.92035e-010 1.85058e-012 1.96558e-012 3.31646e-010 3.19328e-012 3.39842e-012 1.9203e-010 1.85188e-012 1.97831e-012 -7.73091 5.47488 -0.417314 1.92037e-010 1.85009e-012 1.96876e-012 -2.90554 0.965183 -0.102902 1.92027e-010 1.85088e-012 1.96876e-012 -10.2786 0.731801 -0.0259123 1.92041e-010 1.85228e-012 1.95922e-012 -2.22167 -0.733487 0.20892 -2.03217e-016 0 -3.88251e-019 -1.50117 -1.93106 0.00777407 -0.00871932 -2.07863 -0.0716947 -0.472324 3.99921 0.134461 2.03217e-016 0 3.88251e-019 -2.45078 -8.43842 0.261235 -0.0068546 9.70801 -0.175576 0.523584 -1.27998 -0.0328724 
277.571 82.6985 90.0042 1.5309 0.1078 36.6243 -1.93271 1.3677 -0.284571 -1.28654 0.77081 -0.213689 1.20831 1.88423 0.654821 -1.48889 -1.91023 0.827792 -0 0 0 -0 0 0 -6.35935e-015 9.64644e-015 4.66577e-014 22.1344 6.0144 1.81908 -3.97781 -1.76181 6.26154 0.000704439 0.588964 0.0827577 -1.17243e-011 -7.60978e-010 4.48339e-010 -1.96087e-011 -1.31876e-009 7.76132e-010 -1.17166e-011 -7.60978e-010 4.48336e-010 7.73091 5.47488 0.417314 -1.17221e-011 -7.6098e-010 4.48344e-010 2.90554 0.965183 0.102902 -1.17159e-011 -7.6098e-010 4.48336e-010 10.2786 0.731801 0.0259123 -1.17319e-011 -7.60979e-010 4.48344e-010 2.22167 -0.733487 -0.20892 -6.41454e-015 9.64644e-015 4.64702e-014 -20.828 7.44764 -2.00862 3.59232 -1.5274 -5.72224 -0.0408341 -4.48498 0.623367 1.97308e-010 -1.01745e-010 -8.07734e-012 3.39835e-010 -1.76767e-010 -1.2931e-011 1.973e-010 -1.01743e-010 -8.06549e-012 -7.73091 5.47488 -0.417314 1.97309e-010 -1.01744e-010 -8.07424e-012 -2.90554 0.965183 -0.102902 1.97296e-010 -1.01743e-010 -8.07211e-012 -10.2786 0.731801 -0.0259123 1.97311e-010 -1.01743e-010 -8.08204e-012 -2.22167 -0.733487 0.20892 -2.03217e-016 0 -3.88251e-019 -0.989362 -3.86053 0.388744 0.0130198 5.40949 0.0988408 -0.989531 -1.82576 -3.97303 2.03217e-016 0 3.88251e-019 -0.901548 -7.64417 1.89638 -0.0139867 12.5074 -0.225892 0.619041 -4.28601 1.19323 
277.564 82.7009 90.0034 0.965993 0.0675853 75.3813 -1.21658 2.81257 -0.511172 -1.88672 1.5719 -0.308501 2.43869 3.87577 1.34905 -3.00182 -3.92834 1.70532 -0 0 0 -0 0 0 -3.52999e-014 2.04623e-014 1.00566e-013 45.1105 12.349 3.80843 -7.76587 -3.55341 12.8981 -0.000402848 1.21346 0.170537 -2.43496e-010 -1.61186e-009 9.44108e-010 -4.19142e-010 -2.79336e-009 1.63442e-009 -2.43485e-010 -1.61187e-009 9.44106e-010 7.73091 5.47488 0.417314 -2.43493e-010 -1.61187e-009 9.44118e-010 2.90554 0.965183 0.102902 -2.43491e-010 -1.61187e-009 9.44108e-010 10.2786 0.731801 0.0259123 -2.43506e-010 -1.61187e-009 9.44115e-010 2.22167 -0.733487 -0.20892 -3.53083e-014 2.04599e-014 1.00389e-013 -42.2591 15.2874 -4.24608 7.05964 -3.09121 -11.7839 0.0233627 -9.22242 1.29489 1.92648e-010 -2.22924e-010 -1.24453e-011 3.30638e-010 -3.87229e-010 -1.94778e-011 1.92638e-010 -2.22919e-010 -1.24344e-011 -7.73091 5.47488 -0.417314 1.92649e-010 -2.2292e-010 -1.24423e-011 -2.90554 0.965183 -0.102902 1.92632e-010 -2.22919e-010 -1.24379e-011 -10.2786 0.731801 -0.0259123 1.92649e-010 -2.22921e-010 -1.24483e-011 -2.22167 -0.733487 0.20892 -2.03217e-016 0 -3.88251e-019 -0.420591 -5.90002 0.793342 -0.0134831 13.3253 0.285843 -2.4479 -7.90846 -8.39024 2.03217e-016 0 3.88251e-019 0.686511 -6.79969 3.61902 -0.0159607 15.4666 -0.280945 0.860912 -7.45861 2.50366 
277.57 82.7004 89.9985 0.5177 -0.131654 109.948 -0.568139 4.1021 -0.714752 -2.41908 2.28781 -0.393264 3.49523 5.64973 1.97299 -4.30043 -5.72591 2.49445 -0 0 0 -0 0 0 -5.87365e-014 2.85507e-014 1.39277e-013 65.2097 17.9685 5.70638 -10.7975 -5.03342 18.8511 -0.00299291 1.76688 0.248378 -4.19362e-010 -2.28667e-009 1.34103e-009 -7.22288e-010 -3.96275e-009 2.32155e-009 -4.19348e-010 -2.28668e-009 1.34103e-009 7.73091 5.47488 0.417314 -4.19358e-010 -2.28668e-009 1.34104e-009 2.90554 0.965183 0.102902 -4.19359e-010 -2.28668e-009 1.34103e-009 10.2786 0.731801 0.0259123 -4.19374e-010 -2.28668e-009 1.34104e-009 2.22167 -0.733487 -0.20892 -5.87041e-014 2.85464e-014 1.39112e-013 -60.814 22.2285 -6.45667 9.87463 -4.3997 -17.2129 0.17724 -13.4485 1.91696 2.07853e-010 -3.08937e-010 -2.81632e-011 3.56211e-010 -5.36686e-010 -4.55897e-011 2.0784e-010 -3.08931e-010 -2.81531e-011 -7.73091 5.47488 -0.417314 2.07854e-010 -3.08931e-010 -2.81602e-011 -2.90554 0.965183 -0.102902 2.07833e-010 -3.08931e-010 -2.81539e-011 -10.2786 0.731801 -0.0259123 2.07851e-010 -3.08934e-010 -2.81646e-011 -2.22167 -0.733487 0.20892 -2.03217e-016 0 -3.88251e-019 0.111877 -7.71818 1.15854 -0.0836981 20.3851 0.467794 -4.55989 -13.1797 -12.5161 2.03217e-016 0 3.88251e-019 2.06027 -6.0436 5.15045 -0.0126493 18.1061 -0.331906 1.20117 -10.2799 3.69479 
